<svg width="24" height="24" viewBox="0 0 24 24" fill="none" xmlns="http://www.w3.org/2000/svg">
<path fill-rule="evenodd" clip-rule="evenodd" d="M12 20.3333C16.6024 20.3333 20.3334 16.6023 20.3334 12C20.3334 7.39761 16.6024 3.66666 12 3.66666C7.39764 3.66666 3.66669 7.39761 3.66669 12C3.66669 16.6023 7.39764 20.3333 12 20.3333ZM12 18.6667C15.6819 18.6667 18.6667 15.6819 18.6667 12C18.6667 8.31809 15.6819 5.33332 12 5.33332C8.31812 5.33332 5.33335 8.31809 5.33335 12C5.33335 15.6819 8.31812 18.6667 12 18.6667ZM11.1667 7.83332H9.50002V13.6667H15.3334V12H11.1667V7.83332Z" fill="#2D2D2D"/>
<mask id="mask0_7993_152" style="mask-type:alpha" maskUnits="userSpaceOnUse" x="3" y="3" width="18" height="18">
<path fill-rule="evenodd" clip-rule="evenodd" d="M12 20.3333C16.6024 20.3333 20.3334 16.6023 20.3334 12C20.3334 7.39761 16.6024 3.66666 12 3.66666C7.39764 3.66666 3.66669 7.39761 3.66669 12C3.66669 16.6023 7.39764 20.3333 12 20.3333ZM12 18.6667C15.6819 18.6667 18.6667 15.6819 18.6667 12C18.6667 8.31809 15.6819 5.33332 12 5.33332C8.31812 5.33332 5.33335 8.31809 5.33335 12C5.33335 15.6819 8.31812 18.6667 12 18.6667ZM11.1667 7.83332H9.50002V13.6667H15.3334V12H11.1667V7.83332Z" fill="white"/>
</mask>
<g mask="url(#mask0_7993_152)">
</g>
</svg>
